<svg id="Layer_1" data-name="Layer 1" xmlns="http://www.w3.org/2000/svg" viewBox="0 0 812 225"><defs><style>.cls-1{fill:#f09434;stroke:#f09434;stroke-linecap:round;stroke-linejoin:round;stroke-width:0;}</style></defs><title>Artboard 1</title><path class="cls-1" d="M48.24,86.84q34.57,43.6,69.28,87.16c.68.87,1.51,1.62,2.4,2.56L184.19,95.8l64.43,81,64.45-81,64.45,81L442,95.8l64.45,81,64.44-81c21.66,27.23,42.95,54,64.44,81l64.4-80.91c1.17,1.41,2,2.41,2.83,3.44,16.16,20.25,32.25,40.54,48.48,60.73a22.29,22.29,0,0,0,2.6,2.72q11.35-11.39,22.84-22.64c-.09-.12-.16-.24-.26-.35Q739.12,93.16,702,46.55c-.69-.87-1.49-1.66-2.4-2.66l-64.29,80.8-64.45-81-64.44,81L442,43.71l-64.45,81-64.44-81-64.44,81-64.44-81-64.44,81c-4.89-6.14-9.44-11.84-14-17.55q-17.26-21.7-34.55-43.4Q59.65,75.24,48.24,86.84Z"/></svg>