<svg id="Layer_1" data-name="Layer 1" xmlns="http://www.w3.org/2000/svg" viewBox="0 0 133.14 728.22"><defs><style>.cls-1{fill:#f6c3ff;}</style></defs><title>Artboard 1</title><path class="cls-1" d="M0,205.58,81,270,0,334.47l81,64.45L0,463.37l81,64.44L0,592.25l81,64.44-17.55,14-43.4,34.53c7.64,7.73,15.36,15.39,23.08,23q43.62-34.63,87.21-69.34c.86-.69,1.62-1.51,2.56-2.4L52.14,592.2l81-64.43-81-64.45,81-64.44-81-64.44,81-64.46-81-64.43,81-64.45L52.24,76.71l3.43-2.84Q86,49.65,116.41,25.39a21,21,0,0,0,2.69-2.56Q107.72,11.48,96.46,0c-.12.08-.24.16-.35.25Q49.46,37.32,2.86,74.44c-.87.69-1.65,1.5-2.65,2.41,27,21.5,53.71,42.73,80.79,64.29Z"/></svg>