<svg id="Layer_1" data-name="Layer 1" xmlns="http://www.w3.org/2000/svg" viewBox="0 0 728.2 133.11"><defs><style>.cls-1{fill:#f09434;}</style></defs><title>designElementOrangeNy</title><path class="cls-1" d="M705.36,119.09q11.35-11.39,22.84-22.64c-.09-.12-.16-.24-.26-.35Q690.88,49.47,653.76,2.86c-.69-.87-1.49-1.66-2.4-2.66L587.07,81,522.62,0,458.18,81,393.76,0,329.31,81,264.87,0,200.43,81,136,0,71.55,81c-4.89-6.14-9.44-11.84-14-17.55Q40.28,41.77,23,20.07,11.41,31.55,0,43.15q34.58,43.61,69.28,87.16c.68.87,1.51,1.62,2.4,2.56L136,52.11l64.43,81,64.45-81,64.45,81,64.44-81,64.45,81,64.44-81c21.66,27.23,42.95,54,64.44,81l64.4-80.91c1.17,1.41,2,2.41,2.83,3.44,16.16,20.25,32.25,40.54,48.48,60.73a22.29,22.29,0,0,0,2.6,2.72Z"/></svg>
