<svg id="Layer_1" data-name="Layer 1" xmlns="http://www.w3.org/2000/svg" viewBox="0 0 225 812"><defs><style>.cls-1{fill:#f6c3ff;}</style></defs><title>designElementLyseroed</title><g id="kzyfkt"><path class="cls-1" d="M171.33,62.46q-11.39-11.35-22.64-22.83c-.12.08-.24.16-.35.25q-46.65,37.06-93.25,74.19c-.87.69-1.65,1.5-2.65,2.41,27,21.5,53.71,42.73,80.79,64.29l-81,64.44,81,64.45-81,64.44,81,64.45L52.25,503l81,64.44-81,64.44,81,64.44-17.55,14Q94,727.57,72.28,744.85c7.64,7.73,15.36,15.39,23.08,23q43.62-34.64,87.21-69.34c.86-.69,1.62-1.51,2.56-2.4l-80.76-64.28,81-64.43-81-64.45,81-64.44-81-64.44,81-64.46-81-64.43,81-64.45-80.9-64.39c1.41-1.17,2.41-2,3.43-2.84q30.38-24.23,60.74-48.48A21.74,21.74,0,0,0,171.33,62.46Z"/></g></svg>
