<svg id="Layer_1" data-name="Layer 1" xmlns="http://www.w3.org/2000/svg" viewBox="0 0 24 24"><defs><style>.cls-1{fill:#fff;}</style></defs><title>email</title><path class="cls-1" d="M13.72,10.53A6.25,6.25,0,0,1,13,13.17c-1,2-3.06,2-3.06-.14a5.89,5.89,0,0,1,.69-2.58C11.68,8.52,13.72,8.83,13.72,10.53ZM24,12A12,12,0,1,1,12,0,12,12,0,0,1,24,12Zm-5-1.19c0-3.25-2.63-5.61-6.26-5.61C7.78,5.2,5,8.35,5,12.28,5,16,7.47,18.8,12,18.8a10,10,0,0,0,5.13-1.29l-.69-1a7.87,7.87,0,0,1-4.26,1.13c-3.43,0-5.73-2.2-5.73-5.47,0-5.71,6.4-6.76,9.21-5.07a4.55,4.55,0,0,1,.59,7.08c-1,.83-2.2.8-1.83-.75,0,0,1.22-4.49,1.36-5H14.43l-.27.95a1.9,1.9,0,0,0-1.91-1.29c-2,0-3.72,2.19-3.72,4.78,0,1.73.91,2.8,2.38,2.8a2.64,2.64,0,0,0,2.36-1.37C13,17.23,19,15.89,19,10.81Z"/></svg>