<svg id="Layer_1" data-name="Layer 1" xmlns="http://www.w3.org/2000/svg" viewBox="0 0 24 24"><defs><style>.cls-1{fill:#fff;}</style></defs><title>instagram</title><path class="cls-1" d="M14.83,6.3c-.74,0-1,0-2.83,0s-2.09,0-2.83,0A2.63,2.63,0,0,0,6.3,9.17c0,.74,0,1,0,2.83s0,2.09,0,2.83A2.63,2.63,0,0,0,9.17,17.7c.74,0,1,0,2.83,0s2.09,0,2.83,0a2.63,2.63,0,0,0,2.87-2.87c0-.74,0-1,0-2.83s0-2.09,0-2.83A2.63,2.63,0,0,0,14.83,6.3ZM12,15.6A3.6,3.6,0,1,1,15.6,12,3.6,3.6,0,0,1,12,15.6Zm3.74-6.5a.84.84,0,0,1,0-1.68.84.84,0,1,1,0,1.68ZM14.33,12A2.33,2.33,0,1,1,12,9.67,2.33,2.33,0,0,1,14.33,12ZM12,0A12,12,0,1,0,24,12,12,12,0,0,0,12,0Zm7,14.89A3.87,3.87,0,0,1,14.89,19c-.75,0-1,0-2.89,0s-2.14,0-2.89,0A3.87,3.87,0,0,1,5,14.89c0-.75,0-1,0-2.89S5,9.86,5,9.11A3.87,3.87,0,0,1,9.11,5c.75,0,1,0,2.89,0s2.14,0,2.89,0A3.87,3.87,0,0,1,19,9.11c0,.75,0,1,0,2.89S19,14.14,19,14.89Z"/></svg>