<svg id="Layer_1" data-name="Layer 1" xmlns="http://www.w3.org/2000/svg" viewBox="0 0 24 24"><defs><style>.cls-1{fill:#fff;fill-rule:evenodd;}</style></defs><title>spotify</title><path class="cls-1" d="M19.1,10.64C15.23,8.34,8.85,8.13,5.16,9.25A1.12,1.12,0,1,1,4.51,7.1c4.23-1.28,11.28-1,15.73,1.61a1.12,1.12,0,1,1-1.14,1.93ZM19,14a.94.94,0,0,1-1.29.31A15.73,15.73,0,0,0,5.73,13a.94.94,0,0,1-.55-1.79,17.5,17.5,0,0,1,13.48,1.6A.93.93,0,0,1,19,14ZM17.5,17.31a.75.75,0,0,1-1,.25c-2.82-1.72-6.37-2.11-10.55-1.16A.74.74,0,0,1,5,15.84a.75.75,0,0,1,.56-.9c4.57-1,8.49-.59,11.66,1.34A.75.75,0,0,1,17.5,17.31ZM12,0A12,12,0,1,0,24,12,12,12,0,0,0,12,0Z"/></svg>